<svg xmlns="http://www.w3.org/2000/svg" width="89" height="149" viewBox="0 0 89 149">
<g>
<path d="M 0.00 0.00 L 89.00 0.00 L 89.00 149.00 L 0.00 149.00 ZM 53.69 140.31 C53.97,140.75 55.61,140.82 57.35,140.46 C66.98,138.44 75.85,131.47 81.06,121.82 C84.07,116.24 84.48,114.62 84.49,108.00 C84.50,98.73 82.63,94.51 75.29,87.29 C72.38,84.43 70.00,81.85 70.00,81.57 C70.00,81.29 71.95,79.10 74.34,76.71 C85.61,65.44 86.96,51.67 78.13,38.11 C73.48,30.98 67.46,27.11 56.25,24.07 C51.67,22.83 50.81,21.55 54.00,20.71 C55.10,20.42 55.99,19.58 55.99,18.84 C55.97,17.41 45.32,6.00 43.99,6.00 C43.56,6.00 40.91,8.51 38.10,11.58 C32.71,17.48 31.55,21.00 35.00,21.00 C36.17,21.00 37.00,21.67 37.00,22.61 C37.00,23.64 36.45,24.00 35.46,23.62 C34.61,23.30 33.15,23.43 32.21,23.92 C31.27,24.41 27.49,26.22 23.80,27.94 C12.10,33.41 5.48,43.81 5.61,56.50 C5.69,63.94 8.84,70.54 15.49,77.14 L 20.16 81.79 L 15.06 87.13 C3.98,98.74 1.70,109.53 7.76,121.54 C11.32,128.58 18.16,135.28 24.61,138.05 C32.94,141.62 35.00,140.38 35.00,131.77 C35.00,125.43 33.30,120.32 30.04,116.82 C27.51,114.09 25.66,107.69 26.55,104.70 C29.53,94.72 37.15,89.29 46.54,90.46 C56.03,91.65 61.88,98.15 61.96,107.61 C61.99,112.00 61.48,113.40 58.26,117.61 C54.83,122.10 54.46,123.20 53.86,131.00 C53.49,135.68 53.42,139.86 53.69,140.31 ZM 52.63 72.08 C49.12,74.22 40.77,74.64 37.50,72.83 C31.62,69.58 27.00,62.48 27.00,56.69 C27.00,54.36 28.39,51.19 31.42,46.57 C35.56,40.26 35.91,39.97 36.98,41.96 C37.98,43.84 38.85,44.06 44.31,43.80 L 50.50 43.50 L 50.81 39.25 C50.98,36.91 51.45,35.00 51.86,35.00 C52.27,35.00 53.58,37.14 54.78,39.75 C55.97,42.36 57.97,46.30 59.22,48.50 C62.55,54.35 62.29,61.62 58.58,66.48 C57.04,68.51 54.36,71.03 52.63,72.08 Z" fill="rgb(18,19,20)"/>
<path d="M 58.57 24.74 C55.89,23.98 54.00,23.86 54.00,24.76 C54.00,25.23 53.34,26.49 52.53,27.56 C51.16,29.37 51.06,29.21 51.03,25.32 C51.00,21.73 51.32,21.09 53.25,20.82 C54.55,20.63 55.50,19.80 55.50,18.83 C55.50,17.82 51.92,13.42 48.73,10.05 C52.10,13.48 55.98,17.98 55.99,18.84 C55.99,19.58 55.10,20.42 54.00,20.71 C50.81,21.55 51.67,22.83 56.25,24.07 C57.05,24.29 57.83,24.51 58.57,24.74 ZM 83.89 55.92 C83.85,63.32 80.65,70.41 74.34,76.71 C80.42,70.63 83.70,63.37 83.89,55.92 ZM 69.32 29.35 C66.57,27.78 63.41,26.37 60.68,25.41 C64.06,26.55 66.89,27.83 69.32,29.35 ZM 80.14 41.53 C79.00,39.46 77.65,37.37 76.30,35.57 C76.94,36.37 77.54,37.21 78.13,38.11 C78.87,39.25 79.54,40.39 80.14,41.53 ZM 44.01 6.00 C43.53,6.04 40.88,8.54 38.10,11.58 C40.91,8.51 43.56,6.00 43.99,6.00 C44.00,6.00 44.00,6.00 44.01,6.00 Z" fill="rgb(80,88,47)"/>
<path d="M 36.96 23.02 C36.99,23.31 37.00,23.63 37.00,24.00 C37.00,27.26 35.93,27.83 34.06,25.57 C33.04,24.34 32.34,24.33 28.85,25.55 C30.47,24.78 31.72,24.17 32.21,23.92 C33.15,23.43 34.61,23.30 35.46,23.62 C36.31,23.95 36.83,23.73 36.96,23.02 ZM 36.46 21.47 C36.11,21.17 35.60,21.00 35.00,21.00 C35.68,21.00 36.15,21.13 36.46,21.47 Z" fill="rgb(149,162,97)"/>
<path d="M 53.69 140.31 C53.42,139.86 53.49,135.68 53.86,131.00 C54.46,123.20 54.83,122.10 58.26,117.61 C61.48,113.40 61.99,112.00 61.96,107.61 C61.88,98.15 56.03,91.65 46.54,90.46 C37.15,89.29 29.53,94.72 26.55,104.70 C25.66,107.69 27.51,114.09 30.04,116.82 C33.30,120.32 35.00,125.43 35.00,131.77 C35.00,140.38 32.94,141.62 24.61,138.05 C18.16,135.28 11.32,128.58 7.76,121.54 C1.70,109.53 3.98,98.74 15.06,87.13 L 20.16 81.79 L 15.49 77.14 C8.84,70.54 5.69,63.94 5.61,56.50 C5.46,42.13 13.92,30.82 28.72,25.60 C32.32,24.33 33.03,24.33 34.06,25.57 C35.93,27.83 37.00,27.26 37.00,24.00 C37.00,21.67 36.56,21.00 35.00,21.00 C31.55,21.00 32.71,17.48 38.10,11.58 C40.91,8.51 43.57,6.00 44.02,6.00 C45.53,6.00 55.50,17.15 55.50,18.83 C55.50,19.80 54.55,20.63 53.25,20.82 C51.32,21.09 51.00,21.73 51.03,25.32 C51.06,29.21 51.16,29.37 52.53,27.56 C53.34,26.49 54.00,25.23 54.00,24.76 C54.00,22.50 65.75,26.62 72.15,31.13 C75.61,33.56 81.32,42.39 82.82,47.62 C85.75,57.83 82.67,68.38 74.34,76.71 C71.95,79.10 70.00,81.29 70.00,81.57 C70.00,81.85 72.38,84.43 75.29,87.29 C82.63,94.51 84.50,98.73 84.49,108.00 C84.48,114.62 84.07,116.24 81.06,121.82 C75.85,131.47 66.98,138.44 57.35,140.46 C55.61,140.82 53.97,140.75 53.69,140.31 ZM 52.63 72.08 C54.36,71.03 57.04,68.51 58.58,66.48 C62.29,61.62 62.55,54.35 59.22,48.50 C57.97,46.30 55.97,42.36 54.78,39.75 C53.58,37.14 52.27,35.00 51.86,35.00 C51.45,35.00 50.98,36.91 50.81,39.25 L 50.50 43.50 L 44.31 43.80 C38.85,44.06 37.98,43.84 36.98,41.96 C35.91,39.97 35.56,40.26 31.42,46.57 C28.39,51.19 27.00,54.36 27.00,56.69 C27.00,62.48 31.62,69.58 37.50,72.83 C40.77,74.64 49.12,74.22 52.63,72.08 Z" fill="rgb(189,212,84)"/>
</g>
</svg>