<svg width="154" height="45" viewBox="0 0 154 45" fill="none" xmlns="http://www.w3.org/2000/svg">
<path d="M14.6198 31.0984C22.694 31.0984 29.2396 24.5529 29.2396 16.4786C29.2396 15.5636 29.1555 14.6681 28.9946 13.7996C28.1261 13.6388 27.2307 13.5547 26.3156 13.5547C18.2413 13.5547 11.6958 20.1002 11.6958 28.1745C11.6958 29.0896 11.7799 29.985 11.9407 30.8535C12.8092 31.0144 13.7047 31.0984 14.6198 31.0984Z" fill="white"/>
<path opacity="0.8" fill-rule="evenodd" clip-rule="evenodd" d="M11.9408 30.8541C5.14594 29.5957 0 23.6384 0 16.4792C0 8.40488 6.54551 1.85938 14.6198 1.85938C21.779 1.85938 27.7363 7.00531 28.9947 13.8001C28.1262 13.6393 27.2307 13.5552 26.3156 13.5552C18.2414 13.5552 11.6958 20.1007 11.6958 28.175C11.6958 29.0901 11.7799 29.9855 11.9408 30.8541Z" fill="white"/>
<path opacity="0.6" fill-rule="evenodd" clip-rule="evenodd" d="M14.62 31.0996C22.6943 31.0996 29.2398 24.5541 29.2398 16.4798C29.2398 15.5647 29.1557 14.6693 28.9949 13.8008C35.7897 15.0591 40.9356 21.0165 40.9356 28.1757C40.9356 36.25 34.3901 42.7955 26.3158 42.7955C19.1566 42.7955 13.1993 37.6495 11.9409 30.8547C12.8094 31.0156 13.7049 31.0996 14.62 31.0996Z" fill="white"/>
<path d="M62.8454 31.8557C67.8414 31.8557 71.4419 29.0368 71.8047 24.8502H67.6181C67.2832 26.8597 65.3574 28.2274 62.8454 28.2274C59.6915 28.2274 57.2633 26.0503 57.2633 21.8638C57.2633 17.6772 59.6915 15.4722 62.8454 15.4722C65.3015 15.4722 67.2274 16.8399 67.5065 18.8773H71.8884C71.3581 14.6628 67.7577 11.8718 62.8454 11.8718C57.6262 11.8718 53.0488 15.2769 53.0488 21.8638C53.0488 28.4506 57.5424 31.8557 62.8454 31.8557Z" fill="white"/>
<path d="M79.5743 17.3422C75.7226 17.3422 73.434 19.603 73.2665 22.422H76.7274C76.7832 21.2497 77.6485 20.1891 79.351 20.1891C80.9419 20.1891 81.863 20.9985 81.863 22.1708C81.863 22.7569 81.5001 23.2035 80.8024 23.2035H78.43C75.3598 23.2035 73.2944 24.8781 73.2944 27.6412C73.2944 30.0415 75.1644 31.8557 77.8997 31.8557C79.8255 31.8557 81.3885 30.9905 81.863 29.6787V31.6324H85.7146V22.5894C85.7146 19.4076 83.1189 17.3422 79.5743 17.3422ZM78.8765 29.0368C77.788 29.0368 77.0065 28.3948 77.0065 27.4738C77.0065 26.3853 77.8438 25.6596 79.0161 25.6596H81.863V25.855C81.863 27.6412 80.7745 29.0368 78.8765 29.0368Z" fill="white"/>
<path d="M88.3218 37.3262H92.2014V30.3765C92.955 31.3254 94.3226 31.8557 95.9135 31.8557C99.9605 31.8557 102.696 28.9809 102.696 24.599C102.696 20.217 100.184 17.3422 96.2484 17.3422C94.4343 17.3422 93.0387 18.0121 92.2014 19.1006V17.5655H88.3218V37.3262ZM95.439 28.5065C93.3457 28.5065 91.9781 26.9435 91.9781 24.599C91.9781 22.2266 93.3457 20.6636 95.439 20.6636C97.4765 20.6636 98.872 22.2266 98.872 24.599C98.872 26.9435 97.4765 28.5065 95.439 28.5065Z" fill="white"/>
<path d="M109.527 31.8557C112.82 31.8557 114.997 30.0974 114.997 27.4179C114.997 21.0543 107.294 24.3199 107.294 21.4451C107.294 20.552 108.048 20.0775 109.136 20.0775C110.197 20.0775 111.285 20.7194 111.453 21.9196H114.83C114.69 19.1564 112.402 17.3422 109.024 17.3422C106.15 17.3422 104.001 19.1006 104.001 21.5846C104.001 27.5017 111.564 24.6827 111.564 27.5575C111.564 28.339 110.727 28.9251 109.527 28.9251C108.076 28.9251 107.099 28.1436 106.959 26.8876H103.61C103.749 29.9299 106.094 31.8557 109.527 31.8557Z" fill="white"/>
<path d="M130.32 17.5655H126.413V25.2688C126.413 27.0551 125.213 28.3948 123.51 28.3948C121.919 28.3948 120.803 27.1668 120.803 25.4642V17.5655H116.923V26.3294C116.923 29.5391 118.989 31.8557 122.143 31.8557C124.068 31.8557 125.631 31.0184 126.413 29.6787V31.6324H130.32V17.5655Z" fill="white"/>
<path d="M133.112 31.6324H136.991V11.4531H133.112V31.6324Z" fill="white"/>
<path d="M149.184 26.8597C148.877 28.0599 147.844 28.6739 146.281 28.6739C144.327 28.6739 143.071 27.4459 142.792 25.4642H152.896C152.924 25.1572 152.952 24.7385 152.952 24.2082C152.952 20.9985 150.97 17.3422 146.002 17.3422C141.229 17.3422 139.052 20.9985 139.052 24.5711C139.052 28.1157 141.508 31.8557 146.281 31.8557C149.742 31.8557 152.421 29.902 152.979 26.8597H149.184ZM146.002 20.1891C147.872 20.1891 148.96 21.4451 149.072 23.0081H142.848C143.183 21.0543 144.243 20.1891 146.002 20.1891Z" fill="white"/>
</svg>
