<svg width="156" height="45" viewBox="0 0 156 45" fill="none" xmlns="http://www.w3.org/2000/svg">
<path fill-rule="evenodd" clip-rule="evenodd" d="M18.3888 3.2092C17.919 3.11256 17.4344 3.11256 16.9645 3.2092C16.4214 3.3209 15.9359 3.59281 15.55 3.80897L15.4448 3.86774L2.36451 11.1345C2.32835 11.1546 2.29109 11.1752 2.25291 11.1962C1.84436 11.4212 1.33067 11.7042 0.936183 12.1322C0.595122 12.5023 0.337016 12.941 0.179126 13.4189C-0.00349798 13.9716 -0.00136134 14.5581 0.000337864 15.0245C0.000496705 15.0681 0.000651637 15.1106 0.000651637 15.152V29.4998C0.000651637 29.5412 0.000496705 29.5837 0.000337864 29.6273C-0.00136134 30.0937 -0.00349798 30.6802 0.179126 31.2329C0.337017 31.7108 0.595124 32.1494 0.936184 32.5195C1.33067 32.9476 1.84436 33.2305 2.25291 33.4556C2.29109 33.4766 2.32835 33.4971 2.36452 33.5172L15.4448 40.784L15.55 40.8428C15.9359 41.0589 16.4214 41.3308 16.9645 41.4426C17.4344 41.5392 17.919 41.5392 18.3888 41.4426C18.932 41.3308 19.4174 41.0589 19.8034 40.8428L19.9086 40.784L32.9888 33.5172C33.0048 33.5083 33.021 33.4994 33.0374 33.4903C33.0581 33.4789 33.0791 33.4673 33.1004 33.4556C33.509 33.2305 34.0227 32.9476 34.4172 32.5195C34.7582 32.1494 35.0163 31.7108 35.1742 31.2329C35.3568 30.6802 35.3547 30.0937 35.353 29.6273C35.3528 29.5837 35.3527 29.5411 35.3527 29.4998V15.152C35.3527 15.1106 35.3528 15.0681 35.353 15.0245C35.3547 14.5581 35.3568 13.9716 35.1742 13.4189C35.0163 12.941 34.7582 12.5023 34.4172 12.1322C34.0227 11.7042 33.509 11.4212 33.1004 11.1962L33.099 11.1954C33.0613 11.1746 33.0245 11.1544 32.9888 11.1345L19.9086 3.86774L19.8034 3.80897C19.4174 3.5928 18.932 3.3209 18.3888 3.2092ZM17.1616 6.95806C17.4295 6.80925 17.5662 6.73406 17.6682 6.68486L17.6767 6.68081L17.6851 6.68486C17.7871 6.73406 17.9239 6.80925 18.1917 6.95806L29.9453 13.4878L17.6766 20.3038L5.40799 13.4879L17.1616 6.95806ZM3.53585 16.4919L15.909 23.3659L15.9091 36.9978L4.08136 30.4269C3.79863 30.2698 3.65428 30.1888 3.553 30.1242L3.54445 30.1188L3.54381 30.1086C3.53659 29.9888 3.53585 29.8232 3.53585 29.4998V16.4919Z" fill="white"/>
<path d="M51.44 28.2307H57.0667V31.5465H47.1445V13.9126H51.44V28.2307Z" fill="white"/>
<path d="M61.0246 16.0729C60.271 16.0729 59.6514 15.8552 59.1658 15.4198C58.6969 14.9676 58.4624 14.415 58.4624 13.7619C58.4624 13.092 58.6969 12.5394 59.1658 12.104C59.6514 11.6519 60.271 11.4258 61.0246 11.4258C61.7614 11.4258 62.3643 11.6519 62.8332 12.104C63.3189 12.5394 63.5617 13.092 63.5617 13.7619C63.5617 14.415 63.3189 14.9676 62.8332 15.4198C62.3643 15.8552 61.7614 16.0729 61.0246 16.0729ZM63.1598 17.5298V31.5465H58.8643V17.5298H63.1598Z" fill="white"/>
<path d="M71.3468 17.3289C72.3348 17.3289 73.1972 17.5298 73.9341 17.9317C74.6876 18.3336 75.2654 18.8611 75.6673 19.5143V17.5298H79.9627V31.5214C79.9627 32.8108 79.7032 33.9747 79.184 35.013C78.6816 36.068 77.9029 36.9053 76.8479 37.5249C75.8096 38.1445 74.5118 38.4543 72.9544 38.4543C70.8779 38.4543 69.1949 37.9603 67.9054 36.9723C66.6159 36.001 65.8791 34.678 65.6949 33.0034H69.9401C70.074 33.5393 70.3922 33.958 70.8946 34.2594C71.397 34.5776 72.0166 34.7367 72.7534 34.7367C73.641 34.7367 74.3443 34.4771 74.8635 33.958C75.3994 33.4556 75.6673 32.6434 75.6673 31.5214V29.5369C75.2486 30.19 74.6709 30.7259 73.9341 31.1446C73.1972 31.5465 72.3348 31.7474 71.3468 31.7474C70.1913 31.7474 69.1446 31.4544 68.2068 30.8683C67.269 30.2654 66.5238 29.4197 65.9712 28.3312C65.4353 27.2259 65.1674 25.9532 65.1674 24.513C65.1674 23.0728 65.4353 21.8085 65.9712 20.72C66.5238 19.6315 67.269 18.7942 68.2068 18.208C69.1446 17.6219 70.1913 17.3289 71.3468 17.3289ZM75.6673 24.5381C75.6673 23.4664 75.3659 22.6207 74.763 22.0011C74.1769 21.3815 73.4568 21.0717 72.6027 21.0717C71.7487 21.0717 71.0202 21.3815 70.4173 22.0011C69.8312 22.6039 69.5382 23.4413 69.5382 24.513C69.5382 25.5848 69.8312 26.4389 70.4173 27.0752C71.0202 27.6948 71.7487 28.0046 72.6027 28.0046C73.4568 28.0046 74.1769 27.6948 74.763 27.0752C75.3659 26.4556 75.6673 25.6099 75.6673 24.5381Z" fill="white"/>
<path d="M91.4351 17.3791C93.0427 17.3791 94.3322 17.915 95.3035 18.9867C96.2748 20.0418 96.7604 21.4987 96.7604 23.3575V31.5465H92.4901V23.9353C92.4901 22.9975 92.2473 22.269 91.7616 21.7499C91.276 21.2308 90.6229 20.9712 89.8023 20.9712C88.9817 20.9712 88.3286 21.2308 87.843 21.7499C87.3573 22.269 87.1145 22.9975 87.1145 23.9353V31.5465H82.8191V12.9581H87.1145V19.4138C87.5499 18.7942 88.1444 18.3001 88.898 17.9317C89.6516 17.5633 90.4973 17.3791 91.4351 17.3791Z" fill="white"/>
<path d="M107.306 27.9042V31.5465H105.121C103.563 31.5465 102.349 31.1697 101.479 30.4161C100.608 29.6458 100.172 28.3982 100.172 26.6733V21.0968H98.4642V17.5298H100.172V14.1136H104.468V17.5298H107.281V21.0968H104.468V26.7235C104.468 27.1422 104.568 27.4436 104.769 27.6278C104.97 27.8121 105.305 27.9042 105.774 27.9042H107.306Z" fill="white"/>
<path d="M113.743 19.5143C114.145 18.8611 114.723 18.3336 115.476 17.9317C116.23 17.5298 117.092 17.3289 118.064 17.3289C119.219 17.3289 120.266 17.6219 121.204 18.208C122.141 18.7942 122.878 19.6315 123.414 20.72C123.967 21.8085 124.243 23.0728 124.243 24.513C124.243 25.9532 123.967 27.2259 123.414 28.3312C122.878 29.4197 122.141 30.2654 121.204 30.8683C120.266 31.4544 119.219 31.7474 118.064 31.7474C117.076 31.7474 116.213 31.5549 115.476 31.1697C114.74 30.7678 114.162 30.2403 113.743 29.5872V31.5465H109.448V12.9581H113.743V19.5143ZM119.872 24.513C119.872 23.4413 119.571 22.6039 118.968 22.0011C118.382 21.3815 117.653 21.0717 116.783 21.0717C115.929 21.0717 115.2 21.3815 114.597 22.0011C114.011 22.6207 113.718 23.4664 113.718 24.5381C113.718 25.6099 114.011 26.4556 114.597 27.0752C115.2 27.6948 115.929 28.0046 116.783 28.0046C117.637 28.0046 118.365 27.6948 118.968 27.0752C119.571 26.4389 119.872 25.5848 119.872 24.513Z" fill="white"/>
<path d="M132.626 31.7474C131.253 31.7474 130.013 31.4544 128.908 30.8683C127.82 30.2821 126.957 29.4448 126.321 28.3563C125.701 27.2678 125.391 25.9951 125.391 24.5381C125.391 23.098 125.709 21.8336 126.346 20.7451C126.982 19.6399 127.853 18.7942 128.958 18.208C130.064 17.6219 131.303 17.3289 132.676 17.3289C134.049 17.3289 135.288 17.6219 136.394 18.208C137.499 18.7942 138.37 19.6399 139.006 20.7451C139.642 21.8336 139.961 23.098 139.961 24.5381C139.961 25.9783 139.634 27.2511 138.981 28.3563C138.345 29.4448 137.465 30.2821 136.343 30.8683C135.238 31.4544 133.999 31.7474 132.626 31.7474ZM132.626 28.0298C133.446 28.0298 134.141 27.7283 134.711 27.1255C135.297 26.5226 135.59 25.6602 135.59 24.5381C135.59 23.4161 135.305 22.5537 134.736 21.9508C134.183 21.348 133.497 21.0465 132.676 21.0465C131.839 21.0465 131.144 21.348 130.591 21.9508C130.038 22.537 129.762 23.3994 129.762 24.5381C129.762 25.6602 130.03 26.5226 130.566 27.1255C131.119 27.7283 131.805 28.0298 132.626 28.0298Z" fill="white"/>
<path d="M150.278 31.5465L147.59 27.653L145.329 31.5465H140.682L145.304 24.3874L140.556 17.5298H145.379L148.067 21.3982L150.328 17.5298H154.975L150.278 24.5884L155.101 31.5465H150.278Z" fill="white"/>
</svg>
