<svg width="136" height="45" viewBox="0 0 136 45" fill="none" xmlns="http://www.w3.org/2000/svg">
<path opacity="0.7" d="M12.3531 20.7624C13.1181 17.9078 16.0524 14.9736 18.9069 14.2086L36.7036 9.43929C39.5582 8.67429 41.2521 10.3682 40.4871 13.2228L35.7178 31.0195C34.9528 33.874 32.0186 36.8083 29.164 37.5733L11.3673 42.3426C8.51275 43.1076 6.81882 41.4136 7.58382 38.5591L12.3531 20.7624Z" fill="white"/>
<path d="M5.21837 13.6296C5.98337 10.775 8.9176 7.84079 11.7722 7.07579L29.5688 2.30647C32.4234 1.54148 34.1173 3.23541 33.3524 6.08998L28.583 23.8866C27.818 26.7412 24.8838 29.6754 22.0292 30.4404L4.23256 35.2098C1.37799 35.9748 -0.315944 34.2808 0.44905 31.4262L5.21837 13.6296Z" fill="white"/>
<path d="M57.2392 28.1101H63.0744V31.5487H52.7847V13.2617H57.2392V28.1101Z" fill="white"/>
<path d="M63.7923 24.2547C63.7923 22.7612 64.0702 21.45 64.6259 20.3212C65.199 19.1924 65.9718 18.3241 66.9444 17.7162C67.9169 17.1084 69.0023 16.8045 70.2006 16.8045C71.2252 16.8045 72.1196 17.0129 72.8837 17.4297C73.6652 17.8465 74.2644 18.3935 74.6812 19.0708V17.0129H79.1357V31.5487H74.6812V29.4908C74.247 30.1681 73.6392 30.7151 72.8577 31.1319C72.0936 31.5487 71.1992 31.7571 70.1746 31.7571C68.9936 31.7571 67.9169 31.4532 66.9444 30.8454C65.9718 30.2202 65.199 29.3431 64.6259 28.2143C64.0702 27.0681 63.7923 25.7483 63.7923 24.2547ZM74.6812 24.2808C74.6812 23.1693 74.3686 22.2923 73.7434 21.6498C73.1356 21.0072 72.3888 20.6859 71.5031 20.6859C70.6174 20.6859 69.862 21.0072 69.2368 21.6498C68.6289 22.275 68.325 23.1433 68.325 24.2547C68.325 25.3662 68.6289 26.2519 69.2368 26.9118C69.862 27.5544 70.6174 27.8757 71.5031 27.8757C72.3888 27.8757 73.1356 27.5544 73.7434 26.9118C74.3686 26.2693 74.6812 25.3923 74.6812 24.2808Z" fill="white"/>
<path d="M96.6857 17.0129L87.5683 38.4519H82.7751L86.1095 31.0538L80.1962 17.0129H85.1717L88.5322 26.1043L91.8665 17.0129H96.6857Z" fill="white"/>
<path d="M111.478 24.0463C111.478 24.4631 111.452 24.8973 111.4 25.3488H101.318C101.388 26.2519 101.674 26.9466 102.178 27.4328C102.699 27.9017 103.333 28.1362 104.08 28.1362C105.191 28.1362 105.964 27.6673 106.398 26.7295H111.139C110.896 27.6846 110.453 28.5443 109.811 29.3084C109.185 30.0725 108.395 30.6717 107.44 31.1059C106.485 31.54 105.417 31.7571 104.236 31.7571C102.812 31.7571 101.544 31.4532 100.433 30.8454C99.3212 30.2375 98.4529 29.3692 97.8277 28.2404C97.2025 27.1115 96.8899 25.7917 96.8899 24.2808C96.8899 22.7699 97.1938 21.45 97.8016 20.3212C98.4268 19.1924 99.2951 18.3241 100.407 17.7162C101.518 17.1084 102.795 16.8045 104.236 16.8045C105.643 16.8045 106.893 17.0997 107.987 17.6902C109.081 18.2807 109.932 19.1229 110.54 20.217C111.165 21.3111 111.478 22.5876 111.478 24.0463ZM106.919 22.8741C106.919 22.11 106.659 21.5021 106.138 21.0506C105.617 20.5991 104.965 20.3733 104.184 20.3733C103.437 20.3733 102.803 20.5904 102.282 21.0246C101.779 21.4587 101.466 22.0752 101.344 22.8741H106.919Z" fill="white"/>
<path d="M117.761 19.4355C118.282 18.6367 118.934 18.0115 119.715 17.5599C120.497 17.091 121.365 16.8566 122.32 16.8566V21.5716H121.096C119.984 21.5716 119.151 21.8147 118.595 22.301C118.039 22.7699 117.761 23.6035 117.761 24.8018V31.5487H113.307V17.0129H117.761V19.4355Z" fill="white"/>
<path d="M129.841 31.7571C128.574 31.7571 127.445 31.54 126.455 31.1059C125.465 30.6717 124.684 30.0812 124.111 29.3345C123.537 28.5703 123.216 27.7194 123.147 26.7816H127.549C127.601 27.2852 127.836 27.6933 128.252 28.0059C128.669 28.3185 129.182 28.4748 129.789 28.4748C130.345 28.4748 130.771 28.3706 131.066 28.1622C131.378 27.9365 131.535 27.6499 131.535 27.3026C131.535 26.8858 131.318 26.5819 130.883 26.3908C130.449 26.1824 129.746 25.9567 128.773 25.7135C127.731 25.4704 126.863 25.2186 126.168 24.9581C125.474 24.6802 124.875 24.2547 124.371 23.6817C123.867 23.0912 123.616 22.301 123.616 21.3111C123.616 20.4775 123.841 19.7221 124.293 19.0448C124.762 18.3501 125.439 17.8031 126.325 17.4036C127.228 17.0042 128.296 16.8045 129.529 16.8045C131.352 16.8045 132.785 17.256 133.827 18.1591C134.886 19.0621 135.494 20.2604 135.651 21.754H131.535C131.465 21.2503 131.239 20.8509 130.857 20.5557C130.493 20.2604 130.006 20.1128 129.399 20.1128C128.878 20.1128 128.478 20.217 128.2 20.4254C127.922 20.6165 127.784 20.8856 127.784 21.233C127.784 21.6498 128.001 21.9624 128.435 22.1708C128.886 22.3792 129.581 22.5876 130.519 22.796C131.595 23.0738 132.473 23.3517 133.15 23.6295C133.827 23.89 134.418 24.3242 134.921 24.932C135.442 25.5225 135.711 26.3214 135.729 27.3286C135.729 28.1796 135.486 28.9437 134.999 29.621C134.53 30.2809 133.844 30.8019 132.941 31.184C132.056 31.5661 131.022 31.7571 129.841 31.7571Z" fill="white"/>
</svg>
