<svg width="159" height="45" viewBox="0 0 159 45" fill="none" xmlns="http://www.w3.org/2000/svg">
<path fill-rule="evenodd" clip-rule="evenodd" d="M20.4677 42.7948C31.7717 42.7948 40.9354 33.6311 40.9354 22.3271C40.9354 11.0231 31.7717 1.85938 20.4677 1.85938C9.16369 1.85938 0 11.0231 0 22.3271C0 33.6311 9.16369 42.7948 20.4677 42.7948ZM26.8529 11.3941C27.1637 10.2901 26.0924 9.63725 25.1139 10.3343L11.4549 20.065C10.3937 20.821 10.5606 22.3271 11.7056 22.3271H15.3024V22.2992H22.3124L16.6006 24.3146L14.0825 33.2601C13.7717 34.3642 14.843 35.017 15.8216 34.3198L29.4806 24.5893C30.5417 23.8333 30.3747 22.3271 29.2299 22.3271H23.7754L26.8529 11.3941Z" fill="white"/>
<path d="M51.5234 31.5453V28.3077H54.0912V15.2456H51.5234V12.0079H61.5712C62.7621 12.0079 63.7948 12.2126 64.6693 12.622C65.5624 13.0127 66.2509 13.5802 66.7347 14.3245C67.2371 15.0502 67.4883 15.9247 67.4883 16.9481V17.2272C67.4883 18.1203 67.3208 18.8553 66.9859 19.4321C66.6509 19.9903 66.2509 20.4276 65.7857 20.7439C65.3392 21.0416 64.9112 21.2556 64.5018 21.3859V21.8883C64.9112 21.9999 65.3578 22.2139 65.8415 22.5302C66.3253 22.8279 66.7347 23.2652 67.0696 23.842C67.4231 24.4188 67.5999 25.1724 67.5999 26.1028V26.3819C67.5999 27.4611 67.3487 28.3914 66.8463 29.1729C66.3439 29.9358 65.6462 30.5219 64.753 30.9313C63.8785 31.3406 62.8551 31.5453 61.6829 31.5453H51.5234ZM57.7754 28.196H61.2363C62.0364 28.196 62.6783 28.0007 63.1621 27.6099C63.6645 27.2192 63.9157 26.661 63.9157 25.9353V25.6562C63.9157 24.9305 63.6738 24.3723 63.19 23.9816C62.7063 23.5908 62.055 23.3954 61.2363 23.3954H57.7754V28.196ZM57.7754 20.0462H61.1805C61.9434 20.0462 62.5667 19.8508 63.0505 19.46C63.5529 19.0693 63.8041 18.5297 63.8041 17.8412V17.5621C63.8041 16.8551 63.5622 16.3155 63.0784 15.9433C62.5946 15.5526 61.962 15.3572 61.1805 15.3572H57.7754V20.0462Z" fill="white"/>
<path d="M75.919 31.9361C74.5421 31.9361 73.3047 31.6569 72.2069 31.0987C71.1091 30.5405 70.2438 29.7311 69.6112 28.6705C68.9786 27.6099 68.6622 26.3353 68.6622 24.8468V24.4002C68.6622 22.9116 68.9786 21.6371 69.6112 20.5765C70.2438 19.5159 71.1091 18.7065 72.2069 18.1483C73.3047 17.59 74.5421 17.3109 75.919 17.3109C77.2959 17.3109 78.5333 17.59 79.6311 18.1483C80.7289 18.7065 81.5941 19.5159 82.2268 20.5765C82.8594 21.6371 83.1757 22.9116 83.1757 24.4002V24.8468C83.1757 26.3353 82.8594 27.6099 82.2268 28.6705C81.5941 29.7311 80.7289 30.5405 79.6311 31.0987C78.5333 31.6569 77.2959 31.9361 75.919 31.9361ZM75.919 28.8101C76.9982 28.8101 77.8913 28.4658 78.5984 27.7774C79.3055 27.0703 79.659 26.0655 79.659 24.763V24.4839C79.659 23.1815 79.3055 22.186 78.5984 21.4975C77.9099 20.7904 77.0168 20.4369 75.919 20.4369C74.8398 20.4369 73.9466 20.7904 73.2396 21.4975C72.5325 22.186 72.179 23.1815 72.179 24.4839V24.763C72.179 26.0655 72.5325 27.0703 73.2396 27.7774C73.9466 28.4658 74.8398 28.8101 75.919 28.8101Z" fill="white"/>
<path d="M85.0263 31.5453V12.0079H88.543V31.5453H85.0263Z" fill="white"/>
<path d="M96.3475 31.5453C95.4358 31.5453 94.6915 31.2662 94.1147 30.708C93.5565 30.1312 93.2774 29.3683 93.2774 28.4193V20.6044H89.8165V17.7017H93.2774V13.4035H96.7941V17.7017H100.59V20.6044H96.7941V27.8053C96.7941 28.3635 97.0546 28.6426 97.5756 28.6426H100.255V31.5453H96.3475Z" fill="white"/>
<path d="M108.127 31.9361C106.322 31.9361 104.843 31.5453 103.69 30.7638C102.536 29.9823 101.838 28.8659 101.596 27.4145L104.834 26.5772C104.964 27.2285 105.178 27.7402 105.476 28.1123C105.792 28.4845 106.174 28.7543 106.62 28.9217C107.085 29.0706 107.588 29.145 108.127 29.145C108.946 29.145 109.551 29.0054 109.941 28.7263C110.332 28.4286 110.528 28.0658 110.528 27.6378C110.528 27.2099 110.342 26.8842 109.969 26.661C109.597 26.4191 109.002 26.2237 108.183 26.0748L107.402 25.9353C106.434 25.7492 105.55 25.498 104.75 25.1817C103.95 24.8468 103.308 24.3909 102.824 23.8141C102.341 23.2373 102.099 22.493 102.099 21.5812C102.099 20.2043 102.601 19.153 103.606 18.4274C104.611 17.6831 105.932 17.3109 107.569 17.3109C109.113 17.3109 110.397 17.6552 111.421 18.3436C112.444 19.0321 113.114 19.9345 113.43 21.0509L110.165 22.0557C110.016 21.3487 109.709 20.8463 109.244 20.5486C108.797 20.2508 108.239 20.102 107.569 20.102C106.899 20.102 106.388 20.2229 106.034 20.4648C105.68 20.6881 105.504 21.0044 105.504 21.4138C105.504 21.8604 105.69 22.1953 106.062 22.4186C106.434 22.6232 106.936 22.7814 107.569 22.893L108.351 23.0326C109.393 23.2187 110.332 23.4699 111.17 23.7862C112.025 24.0839 112.695 24.5212 113.179 25.098C113.681 25.6562 113.933 26.4191 113.933 27.3866C113.933 28.838 113.402 29.9637 112.342 30.7638C111.3 31.5453 109.895 31.9361 108.127 31.9361Z" fill="white"/>
<path d="M115.619 31.5453V12.0079H119.136V19.4042H119.638C119.787 19.1065 120.019 18.8088 120.336 18.5111C120.652 18.2134 121.071 17.9715 121.592 17.7854C122.131 17.5807 122.81 17.4784 123.629 17.4784C124.708 17.4784 125.648 17.7296 126.448 18.232C127.267 18.7158 127.9 19.3949 128.346 20.2695C128.793 21.1254 129.016 22.1302 129.016 23.2838V31.5453H125.499V23.5629C125.499 22.5209 125.239 21.7394 124.718 21.2184C124.215 20.6974 123.49 20.4369 122.541 20.4369C121.461 20.4369 120.624 20.7998 120.029 21.5254C119.433 22.2325 119.136 23.228 119.136 24.5119V31.5453H115.619Z" fill="white"/>
<path d="M131.422 31.5453V17.7017H134.939V31.5453H131.422ZM133.18 16.0829C132.548 16.0829 132.008 15.8782 131.562 15.4688C131.134 15.0595 130.92 14.5199 130.92 13.85C130.92 13.1802 131.134 12.6406 131.562 12.2312C132.008 11.8219 132.548 11.6172 133.18 11.6172C133.832 11.6172 134.371 11.8219 134.799 12.2312C135.227 12.6406 135.441 13.1802 135.441 13.85C135.441 14.5199 135.227 15.0595 134.799 15.4688C134.371 15.8782 133.832 16.0829 133.18 16.0829Z" fill="white"/>
<path d="M139.729 31.5453V20.6044H136.212V17.7017H139.729V15.1339C139.729 14.185 140.008 13.4314 140.566 12.8732C141.143 12.2963 141.887 12.0079 142.799 12.0079H146.428V14.9106H144.027C143.506 14.9106 143.246 15.1897 143.246 15.7479V17.7017H146.874V20.6044H143.246V31.5453H139.729Z" fill="white"/>
<path d="M153.232 31.5453C152.32 31.5453 151.576 31.2662 150.999 30.708C150.441 30.1312 150.161 29.3683 150.161 28.4193V20.6044H146.701V17.7017H150.161V13.4035H153.678V17.7017H157.474V20.6044H153.678V27.8053C153.678 28.3635 153.939 28.6426 154.46 28.6426H157.139V31.5453H153.232Z" fill="white"/>
</svg>
