<svg width="158" height="45" viewBox="0 0 158 45" fill="none" xmlns="http://www.w3.org/2000/svg">
<rect y="17.8633" width="8.93135" height="8.93136" fill="white"/>
<rect x="26.7939" y="26.793" width="8.93137" height="8.93136" transform="rotate(180 26.7939 26.793)" fill="white"/>
<path opacity="0.4" d="M8.93164 17.865L17.863 8.93359V17.865L8.93164 26.7963V17.865Z" fill="white"/>
<path opacity="0.6" d="M17.8628 26.7913L8.93144 35.7227L8.93144 26.7913L17.8628 17.8599L17.8628 26.7913Z" fill="white"/>
<path opacity="0.8" d="M0 17.8627L17.8627 0V8.93136L8.93135 17.8627H0Z" fill="white"/>
<path opacity="0.8" d="M26.7939 26.7935L8.93123 44.6563L8.93123 35.7249L17.8626 26.7935L26.7939 26.7935Z" fill="white"/>
<path d="M46.2459 31.8905C44.8392 31.8905 43.4759 31.6908 42.1561 31.2914C40.8536 30.8919 39.8203 30.3622 39.0562 29.7023L40.2284 27.0713C40.9752 27.6617 41.8869 28.148 42.9636 28.5301C44.0577 28.8948 45.1518 29.0771 46.2459 29.0771C47.6005 29.0771 48.6078 28.86 49.2677 28.4259C49.945 27.9917 50.2836 27.4186 50.2836 26.7066C50.2836 26.1856 50.0926 25.7601 49.7105 25.4301C49.3458 25.0828 48.8769 24.8136 48.3038 24.6226C47.7307 24.4316 46.9492 24.2145 45.9594 23.9713C44.57 23.6414 43.4412 23.3114 42.5729 22.9815C41.7219 22.6515 40.9838 22.1392 40.3586 21.4445C39.7508 20.7325 39.4469 19.7773 39.4469 18.579C39.4469 17.5718 39.7161 16.66 40.2544 15.8438C40.8102 15.0102 41.6351 14.3503 42.7292 13.864C43.8406 13.3778 45.1952 13.1346 46.7929 13.1346C47.9044 13.1346 48.9985 13.2736 50.0752 13.5514C51.152 13.8293 52.0811 14.2287 52.8626 14.7497L51.7945 17.3807C50.9957 16.9118 50.1621 16.5558 49.2937 16.3127C48.4254 16.0696 47.5831 15.948 46.7669 15.948C45.4297 15.948 44.4311 16.1738 43.7712 16.6253C43.1286 17.0768 42.8073 17.676 42.8073 18.4227C42.8073 18.9437 42.9897 19.3692 43.3544 19.6992C43.7364 20.0291 44.214 20.2896 44.7871 20.4807C45.3602 20.6717 46.1417 20.8888 47.1316 21.1319C48.4862 21.4445 49.5976 21.7745 50.466 22.1218C51.3343 22.4518 52.0724 22.9641 52.6802 23.6588C53.3054 24.3534 53.618 25.2912 53.618 26.4721C53.618 27.4794 53.3401 28.3911 52.7844 29.2074C52.246 30.0236 51.4211 30.6748 50.3097 31.1611C49.1982 31.6474 47.8436 31.8905 46.2459 31.8905Z" fill="white"/>
<path d="M56.6634 17.7194H59.9196V31.63H56.6634V17.7194ZM58.3045 15.427C57.7141 15.427 57.2191 15.2447 56.8197 14.88C56.4203 14.4979 56.2205 14.029 56.2205 13.4733C56.2205 12.9175 56.4203 12.4573 56.8197 12.0926C57.2191 11.7106 57.7141 11.5195 58.3045 11.5195C58.895 11.5195 59.3899 11.7019 59.7894 12.0666C60.1888 12.4139 60.3885 12.8568 60.3885 13.3951C60.3885 13.9682 60.1888 14.4545 59.7894 14.8539C59.4073 15.236 58.9124 15.427 58.3045 15.427Z" fill="white"/>
<path d="M68.4916 31.8123C67.3628 31.8123 66.26 31.6647 65.1833 31.3695C64.1066 31.0743 63.2469 30.7009 62.6044 30.2494L63.8548 27.7746C64.48 28.1914 65.2267 28.5301 66.095 28.7906C66.9807 29.0337 67.8491 29.1553 68.7 29.1553C70.6451 29.1553 71.6176 28.643 71.6176 27.6183C71.6176 27.1321 71.3658 26.7934 70.8622 26.6024C70.3759 26.4114 69.5857 26.229 68.4916 26.0553C67.3454 25.8817 66.4076 25.682 65.6783 25.4562C64.9662 25.2304 64.341 24.8397 63.8027 24.2839C63.2817 23.7109 63.0212 22.9207 63.0212 21.9134C63.0212 20.5936 63.5682 19.5429 64.6623 18.7614C65.7738 17.9625 67.2673 17.5631 69.1429 17.5631C70.098 17.5631 71.0532 17.676 72.0084 17.9017C72.9635 18.1101 73.745 18.3967 74.3528 18.7614L73.1025 21.2361C71.9215 20.5415 70.593 20.1941 69.1168 20.1941C68.1617 20.1941 67.4323 20.3417 66.9286 20.637C66.4424 20.9148 66.1992 21.2882 66.1992 21.7571C66.1992 22.2781 66.4597 22.6515 66.9807 22.8773C67.5191 23.0857 68.344 23.2854 69.4555 23.4764C70.5669 23.6501 71.4787 23.8498 72.1907 24.0755C72.9027 24.3013 73.5106 24.6834 74.0142 25.2217C74.5352 25.7601 74.7957 26.5242 74.7957 27.5141C74.7957 28.8166 74.2313 29.8586 73.1025 30.6401C71.9736 31.4216 70.4367 31.8123 68.4916 31.8123Z" fill="white"/>
<path d="M90.3704 17.7194L83.858 32.7501C83.2501 34.261 82.5121 35.3204 81.6437 35.9282C80.7754 36.5534 79.7247 36.866 78.4917 36.866C77.797 36.866 77.1111 36.7531 76.4338 36.5274C75.7565 36.3016 75.2007 35.989 74.7666 35.5896L76.0691 33.193C76.3817 33.4882 76.7464 33.7227 77.1632 33.8963C77.5973 34.07 78.0315 34.1568 78.4657 34.1568C79.0388 34.1568 79.5077 34.0092 79.8723 33.714C80.2544 33.4188 80.6017 32.9238 80.9143 32.2291L81.1488 31.6821L75.0792 17.7194H78.4657L82.842 28.0091L87.2444 17.7194H90.3704Z" fill="white"/>
<path d="M100.116 17.5631C101.471 17.5631 102.678 17.8583 103.737 18.4488C104.814 19.0392 105.656 19.8728 106.264 20.9496C106.872 22.0263 107.176 23.268 107.176 24.6747C107.176 26.0814 106.872 27.3318 106.264 28.4259C105.656 29.5026 104.814 30.3362 103.737 30.9267C102.678 31.5171 101.471 31.8123 100.116 31.8123C98.2407 31.8123 96.7559 31.1872 95.6618 29.9368V36.6837H92.4056V17.7194H95.5055V19.5429C96.0439 18.8829 96.7038 18.388 97.4853 18.058C98.2841 17.7281 99.1611 17.5631 100.116 17.5631ZM99.7516 29.025C100.95 29.025 101.931 28.6256 102.695 27.8267C103.477 27.0279 103.867 25.9772 103.867 24.6747C103.867 23.3722 103.477 22.3215 102.695 21.5227C101.931 20.7238 100.95 20.3244 99.7516 20.3244C98.9701 20.3244 98.2668 20.5067 97.6416 20.8714C97.0164 21.2188 96.5214 21.7224 96.1567 22.3823C95.792 23.0422 95.6097 23.8064 95.6097 24.6747C95.6097 25.543 95.792 26.3072 96.1567 26.9671C96.5214 27.627 97.0164 28.1393 97.6416 28.504C98.2668 28.8514 98.9701 29.025 99.7516 29.025Z" fill="white"/>
<path d="M118.157 17.5631C119.911 17.5631 121.318 18.0754 122.377 19.1C123.436 20.1247 123.966 21.6442 123.966 23.6588V31.63H120.71V24.0755C120.71 22.8599 120.423 21.9481 119.85 21.3403C119.277 20.7151 118.461 20.4025 117.402 20.4025C116.203 20.4025 115.257 20.7672 114.562 21.4966C113.867 22.2086 113.52 23.242 113.52 24.5965V31.63H110.264V12.301H113.52V19.3345C114.059 18.7614 114.718 18.3272 115.5 18.032C116.299 17.7194 117.185 17.5631 118.157 17.5631Z" fill="white"/>
<path d="M141.565 17.7194V31.63H138.465V29.8586C137.944 30.4838 137.292 30.9701 136.511 31.3174C135.729 31.6474 134.887 31.8123 133.984 31.8123C132.126 31.8123 130.658 31.3 129.582 30.2754C128.522 29.2334 127.993 27.6965 127.993 25.6646V17.7194H131.249V25.2217C131.249 26.4721 131.527 27.4099 132.082 28.0351C132.656 28.643 133.463 28.9469 134.505 28.9469C135.669 28.9469 136.589 28.5909 137.266 27.8788C137.961 27.1494 138.308 26.1074 138.308 24.7528V17.7194H141.565Z" fill="white"/>
<path d="M150.126 31.8123C148.997 31.8123 147.895 31.6647 146.818 31.3695C145.741 31.0743 144.882 30.7009 144.239 30.2494L145.489 27.7746C146.115 28.1914 146.861 28.5301 147.73 28.7906C148.615 29.0337 149.484 29.1553 150.335 29.1553C152.28 29.1553 153.252 28.643 153.252 27.6183C153.252 27.1321 153 26.7934 152.497 26.6024C152.011 26.4114 151.22 26.229 150.126 26.0553C148.98 25.8817 148.042 25.682 147.313 25.4562C146.601 25.2304 145.976 24.8397 145.437 24.2839C144.916 23.7109 144.656 22.9207 144.656 21.9134C144.656 20.5936 145.203 19.5429 146.297 18.7614C147.408 17.9625 148.902 17.5631 150.778 17.5631C151.733 17.5631 152.688 17.676 153.643 17.9017C154.598 18.1101 155.38 18.3967 155.987 18.7614L154.737 21.2361C153.556 20.5415 152.228 20.1941 150.751 20.1941C149.796 20.1941 149.067 20.3417 148.563 20.637C148.077 20.9148 147.834 21.2882 147.834 21.7571C147.834 22.2781 148.094 22.6515 148.615 22.8773C149.154 23.0857 149.979 23.2854 151.09 23.4764C152.202 23.6501 153.113 23.8498 153.825 24.0755C154.537 24.3013 155.145 24.6834 155.649 25.2217C156.17 25.7601 156.43 26.5242 156.43 27.5141C156.43 28.8166 155.866 29.8586 154.737 30.6401C153.608 31.4216 152.071 31.8123 150.126 31.8123Z" fill="white"/>
</svg>
