<svg width="24" height="24" viewBox="0 0 24 24" fill="none" xmlns="http://www.w3.org/2000/svg">
<path d="M13.9997 12.3081C13.9777 12.7281 13.8827 13.1411 13.7197 13.5281C13.5863 13.823 13.3667 14.0706 13.0897 14.2381C12.9037 14.3381 12.6997 14.4031 12.4897 14.4281C12.1859 14.4874 11.8735 14.4874 11.5697 14.4281C11.3707 14.3743 11.1839 14.2827 11.0197 14.1581C10.9205 14.0705 10.8397 13.9641 10.782 13.8451C10.7242 13.7261 10.6907 13.5968 10.6832 13.4648C10.6758 13.3327 10.6946 13.2005 10.7386 13.0757C10.7827 12.951 10.851 12.8362 10.9397 12.7381C11.1261 12.5552 11.3571 12.4243 11.6097 12.3581C11.8817 12.2731 12.1647 12.2331 12.4497 12.2381C12.7097 12.2227 12.9697 12.2227 13.2297 12.2381C13.4717 12.2567 13.7117 12.2901 13.9497 12.3381L13.9997 12.3081Z" fill="black"/>
<path d="M17.0005 2H7.00049C5.67441 2 4.40264 2.52678 3.46495 3.46447C2.52727 4.40215 2.00049 5.67392 2.00049 7V17C2.00049 18.3261 2.52727 19.5979 3.46495 20.5355C4.40264 21.4732 5.67441 22 7.00049 22H17.0005C18.3266 22 19.5983 21.4732 20.536 20.5355C21.4737 19.5979 22.0005 18.3261 22.0005 17V7C22.0005 5.67392 21.4737 4.40215 20.536 3.46447C19.5983 2.52678 18.3266 2 17.0005 2ZM7.52049 14.53C7.67811 15.0562 7.92137 15.5529 8.24049 16C8.69604 16.6293 9.32498 17.1123 10.0505 17.39C10.4975 17.556 10.9655 17.664 11.4405 17.71C11.9072 17.7553 12.3738 17.7553 12.8405 17.71C13.384 17.6674 13.9156 17.5286 14.4105 17.3C14.9698 17.0269 15.4487 16.6134 15.8005 16.1C16.0117 15.7982 16.1512 15.4521 16.2084 15.0882C16.2656 14.7242 16.239 14.3521 16.1305 14C15.9984 13.5548 15.7156 13.1694 15.3305 12.91L15.1305 12.77C15.1305 12.86 15.1305 12.94 15.0805 13.02C15.0105 13.47 14.8605 13.902 14.6405 14.3C14.4457 14.6565 14.1709 14.963 13.8378 15.1954C13.5047 15.4279 13.1223 15.5801 12.7205 15.64C12.1919 15.7435 11.646 15.716 11.1305 15.56C10.7028 15.442 10.3133 15.2146 10.0005 14.9C9.65755 14.5511 9.44258 14.0965 9.39049 13.61C9.3404 13.1983 9.4077 12.7808 9.58463 12.4057C9.76157 12.0306 10.0409 11.7132 10.3905 11.49C10.7542 11.2489 11.162 11.0824 11.5905 11C12.0145 10.93 12.4412 10.9 12.8705 10.91C13.2054 10.919 13.5394 10.9491 13.8705 11H13.9305C13.8862 10.7264 13.7949 10.4625 13.6605 10.22C13.5637 10.0582 13.4348 9.91791 13.2818 9.80784C13.1287 9.69776 12.9547 9.62022 12.7705 9.58C12.3306 9.44496 11.8604 9.44496 11.4205 9.58C11.1035 9.69212 10.828 9.89786 10.6305 10.17V10.24L9.63049 9.55V9.48C10.0472 8.87598 10.6815 8.45669 11.4005 8.31C12.0137 8.17629 12.6511 8.20385 13.2505 8.39C13.5866 8.4929 13.8977 8.66417 14.1645 8.89304C14.4312 9.12192 14.6477 9.40346 14.8005 9.72C14.9765 10.079 15.0955 10.464 15.1505 10.86C15.1785 11.0321 15.1952 11.2058 15.2005 11.38L15.5005 11.52C15.9695 11.769 16.3842 12.109 16.7205 12.52C17.0665 12.947 17.2935 13.457 17.3805 14C17.4515 14.328 17.4755 14.665 17.4505 15C17.3994 15.8326 17.0721 16.6243 16.5205 17.25C15.8232 18.0743 14.8747 18.647 13.8205 18.88C13.3565 18.9784 12.8846 19.0352 12.4105 19.05C11.9798 19.0681 11.5484 19.0514 11.1205 19C10.4263 18.9189 9.75037 18.7229 9.12049 18.42C8.30867 18.0086 7.61903 17.3914 7.12049 16.63C6.75201 16.0552 6.47221 15.4282 6.29049 14.77C6.15649 14.274 6.05982 13.7707 6.00049 13.26V12C6.00049 11.58 6.00049 11.16 6.07049 10.74C6.11166 10.2649 6.18854 9.79356 6.30049 9.33C6.45309 8.74599 6.68884 8.18694 7.00049 7.67C7.62587 6.55613 8.64649 5.71751 9.86049 5.32C10.2962 5.1719 10.7448 5.06477 11.2005 5C11.772 4.93491 12.349 4.93491 12.9205 5C13.6109 5.06385 14.2864 5.23947 14.9205 5.52C15.8351 5.92345 16.6132 6.58342 17.1605 7.42C17.5449 8.02348 17.8286 8.68545 18.0005 9.38L16.8205 9.7V9.62C16.6873 9.14648 16.4923 8.69257 16.2405 8.27C15.7277 7.43701 14.9328 6.81596 14.0005 6.52C13.5097 6.35346 12.9981 6.25586 12.4805 6.23C12.0978 6.19846 11.7132 6.19846 11.3305 6.23C10.7398 6.28784 10.1642 6.45038 9.63049 6.71C8.94074 7.0702 8.37344 7.62706 8.00049 8.31C7.74276 8.77804 7.55095 9.27945 7.43049 9.8C7.32542 10.2236 7.25519 10.655 7.22049 11.09C7.19442 11.5063 7.19442 11.9237 7.22049 12.34C7.22587 13.0799 7.3267 13.8159 7.52049 14.53Z" fill="black"/>
<path d="M13.9997 12.3081C13.9777 12.7281 13.8827 13.1411 13.7197 13.5281C13.5863 13.823 13.3667 14.0706 13.0897 14.2381C12.9037 14.3381 12.6997 14.4031 12.4897 14.4281C12.1859 14.4874 11.8735 14.4874 11.5697 14.4281C11.3707 14.3743 11.1839 14.2827 11.0197 14.1581C10.9205 14.0705 10.8397 13.9641 10.782 13.8451C10.7242 13.7261 10.6907 13.5968 10.6832 13.4648C10.6758 13.3327 10.6946 13.2005 10.7386 13.0757C10.7827 12.951 10.851 12.8362 10.9397 12.7381C11.1261 12.5552 11.3571 12.4243 11.6097 12.3581C11.8817 12.2731 12.1647 12.2331 12.4497 12.2381C12.7097 12.2227 12.9697 12.2227 13.2297 12.2381C13.4717 12.2567 13.7117 12.2901 13.9497 12.3381L13.9997 12.3081Z" fill="black"/>
</svg>
